<svg version="1.0" id="Layer_1" xmlns="http://www.w3.org/2000/svg" xmlns:xlink="http://www.w3.org/1999/xlink" x="0px" y="0px" width="64.000000px" height="64.000000px" 
	 viewBox="0 0 64 64" xml:space="preserve">
<g id="Aircraft">
	<g class="st0">
		<path class="st1" d="M52.4,39.2c0,0,5.2,2.8,4.4,3.3l-4.7-1"/>
		<path class="st1" d="M51.4,39.2c0,0-5.2,2.8-4.4,3.3l4.7-1"/>
		<path class="st1" d="M53.3,29.2c0,0,11.2,4.1,9.6,4.8l-10.1-1.5"/>
		<path class="st1" d="M50.4,29.2c0,0-11.2,4.1-9.6,4.8L51,32.5"/>
		<ellipse class="st1" cx="51.9" cy="31.5" rx="1.9" ry="10.3"/>
	</g>
	<g class="st0">
		<path class="st1" d="M12.7,39.2c0,0,5.2,2.8,4.4,3.3l-4.7-1"/>
		<path class="st1" d="M11.7,39.2c0,0-5.2,2.8-4.4,3.3l4.7-1"/>
		<path class="st1" d="M13.6,29.2c0,0,11.2,4.1,9.6,4.8L13,32.5"/>
		<path class="st1" d="M10.7,29.2c0,0-11.2,4.1-9.6,4.8l10.1-1.5"/>
		<ellipse class="st1" cx="12.2" cy="31.5" rx="1.9" ry="10.3"/>
	</g>
	<g>
		<path class="st2" d="M33,42.8c0,0,9.2,5,7.9,5.9l-8.3-1.8"/>
		<path class="st2" d="M31.1,42.8c0,0-9.2,5-7.9,5.9l8.3-1.8"/>
		<path class="st2" d="M34.5,24.9c0,0,19.9,7.3,17,8.6l-18-2.7"/>
		<path class="st2" d="M29.4,24.9c0,0-19.9,7.3-17,8.6l18-2.7"/>
		<path class="st2" d="M35.4,29.1c0,10.2-2.6,18.4-3.4,18.4c-0.8,0-3.4-8.2-3.4-18.4c0-6,0-11.3,0.7-14.7c0.5-2.3,1.8-3.7,2.7-3.7
			c0.9,0,2.2,1.4,2.6,3.7C35.4,17.7,35.4,23.1,35.4,29.1z"/>
	</g>
</g>
</svg>
